# xmcd
#
# Track frame offsets:
#	150
#	13643
#	30136
#	43244
#	58156
#	69224
#	86371
#	95349
#	107009
#	117469
#	127461
#	138909
#	158644
#	175156
#	188399
#	208241
#	219996
#	232044
#	261436
#	274964
#
# Disc length: 3802 seconds
#
# Revision: 1
# Processed by: cddbd v1.5.1PL0 Copyright (c) Steve Scherf et al.
# Submitted via: audiograbber 1.83.01
#
DISCID=1d0ed814
DTITLE=Various Artist - The Blues Collection
DYEAR=1999
DGENRE=Blues
TTITLE0=Howlin Wolf - Forty Four
TTITLE1=Missisipi John Hurt - Richland's Women Blues
TTITLE2=Leadbelly - Fanin Street
TTITLE3=Billie Holiday - Georgia on my mind
TTITLE4=Big Joe Williams - Bye bye Baby Blues
TTITLE5=Howlin Wolf - Blow Wind Blow
TTITLE6=Memphis Slim - Steppin Out'
TTITLE7=Canned Heat - Straight Ahead
TTITLE8=Ray Charles - Hey Now
TTITLE9=John Lee Hooker - Dimples
TTITLE10=Lightnin' Hopkins - Lightnin's Boogie
TTITLE11=Howlin' Wolf - Howlin' for my darlin'
TTITLE12=Missisipi John Hurt - Coffee Blues
TTITLE13=LeadBelly - Frankie and Albert (Part 1)
TTITLE14=Pinetop Perkings - Just keep on drinking
TTITLE15=Jimmy Reed - Hush Hush
TTITLE16=Lightnin' Slim - Rooster Blues
TTITLE17=Big Joe Turner - Morning, Noon and Night
TTITLE18=Muddy Waters - Hoochie Coochie Man
TTITLE19=Billiie Holliday - Lover Man
EXTD=YEAR: 1999
EXTT0=
EXTT1=
EXTT2=
EXTT3=
EXTT4=
EXTT5=
EXTT6=
EXTT7=
EXTT8=
EXTT9=
EXTT10=
EXTT11=
EXTT12=
EXTT13=
EXTT14=
EXTT15=
EXTT16=
EXTT17=
EXTT18=
EXTT19=
PLAYORDER=
